<svg id="Layer_1" enable-background="new 0 0 512 512" height="512" viewBox="0 0 512 512" width="512" xmlns="http://www.w3.org/2000/svg"><g><path d="m334.603 157.94c-28.203 0-54.88 6.64-78.568 18.422-24.769-11.598-53.603-18.422-78.638-18.422-97.615 0-177.03 79.415-177.03 177.03s79.415 177.03 177.03 177.03c28.256 0 54.98-6.665 78.702-18.489 24.884 11.794 53.067 18.489 78.504 18.489 97.615 0 177.03-79.415 177.03-177.03s-79.415-177.03-177.03-177.03zm-304.236 177.03c0-81.073 65.958-147.03 147.03-147.03 14.919 0 31.54 2.964 47.444 8.235-8.553 6.778-16.467 14.328-23.637 22.545-8.368-1.654-16.814-2.595-23.807-2.595-65.532 0-118.846 53.313-118.846 118.846s53.314 118.846 118.846 118.846c11.387 0 22.403-1.613 32.836-4.617.519-.125 1.034-.277 1.542-.46 21.335-6.459 40.151-18.767 54.578-35.052.659-.632 1.242-1.315 1.762-2.034 17.536-20.713 28.128-47.482 28.128-76.683 0-22.889-7.357-46.488-20.483-66.504 7.046-6.242 15.086-11.384 23.851-15.155 15.66 24.589 24.815 54.377 24.815 81.659 0 81.073-65.958 147.03-147.03 147.03s-147.029-65.958-147.029-147.031zm151.082-88.703c-15.174 26.098-23.876 56.402-23.876 88.703 0 29.98 8.649 61.284 24.162 88.739-1.438.069-2.883.107-4.338.107-48.99 0-88.846-39.856-88.846-88.846s39.856-88.846 88.846-88.846c1.26 0 2.621.05 4.052.143zm64.308 88.703c0-14.813 3.649-28.787 10.087-41.08 6.651 13.021 10.398 27.45 10.398 41.08 0 14.675-3.58 28.529-9.907 40.739-6.704-13.276-10.578-27.763-10.578-40.739zm84.593-88.742c1.41-.067 2.827-.104 4.253-.104 48.99 0 88.846 39.856 88.846 88.846s-39.856 88.846-88.846 88.846c-1.284 0-2.648-.045-4.062-.125 15.18-26.101 23.886-56.412 23.886-88.72 0-29.976-8.619-61.281-24.077-88.743zm4.253 235.772c-15.181 0-31.618-2.921-47.436-8.241 8.508-6.743 16.382-14.25 23.522-22.417 8.164 1.572 16.629 2.474 23.914 2.474 65.532 0 118.846-53.313 118.846-118.846s-53.314-118.846-118.846-118.846c-11.338 0-22.31 1.598-32.704 4.577-.524.126-1.042.28-1.555.464-21.381 6.448-40.238 18.768-54.691 35.08-.625.605-1.182 1.254-1.68 1.937-17.589 20.727-28.217 47.538-28.217 76.788 0 21.944 7.583 45.937 20.67 66.338-7.073 6.3-15.154 11.49-23.97 15.291-15.903-24.72-24.884-53.912-24.884-81.629 0-81.073 65.958-147.03 147.03-147.03s147.03 65.957 147.03 147.03-65.957 147.03-147.029 147.03z"/><path d="m192.176 86.454c.524.548 32.125 33.578 46.088 48.173 4.507 4.712 10.828 7.414 17.343 7.414h.002c6.514 0 12.836-2.701 17.342-7.411l46.085-48.167c.314-.329.612-.67.892-1.021 9.763-11.82 14.235-25.287 12.936-38.964-1.169-12.303-7.032-23.856-16.508-32.531-15.364-14.065-39.716-19.49-60.883-6.406-8.603-5.239-17.995-7.808-27.658-7.52-12.294.373-24.152 5.463-33.391 14.332-17.651 16.945-24.243 46.986-2.691 71.616.145.166.293.327.443.485zm23.025-50.459c6.885-6.609 18.403-9.723 30.078 1.366 5.89 5.594 15.162 5.484 20.916-.248 6.857-6.831 18.804-11.2 29.904-1.038 7.047 6.451 10.928 17.712.857 30.07l-41.347 43.215c-14.516-15.172-38.765-40.518-41.497-43.374-10.746-12.516-4.395-24.726 1.089-29.991z"/></g></svg>